<svg width="25" height="24" viewBox="0 0 25 24" fill="none" xmlns="http://www.w3.org/2000/svg">
<path d="M18.5 4H17.5V3C17.5 2.73478 17.3946 2.48043 17.2071 2.29289C17.0196 2.10536 16.7652 2 16.5 2C16.2348 2 15.9804 2.10536 15.7929 2.29289C15.6054 2.48043 15.5 2.73478 15.5 3V4H9.5V3C9.5 2.73478 9.39464 2.48043 9.20711 2.29289C9.01957 2.10536 8.76522 2 8.5 2C8.23478 2 7.98043 2.10536 7.79289 2.29289C7.60536 2.48043 7.5 2.73478 7.5 3V4H6.5C5.70435 4 4.94129 4.31607 4.37868 4.87868C3.81607 5.44129 3.5 6.20435 3.5 7V19C3.5 19.7956 3.81607 20.5587 4.37868 21.1213C4.94129 21.6839 5.70435 22 6.5 22H18.5C19.2957 22 20.0587 21.6839 20.6213 21.1213C21.1839 20.5587 21.5 19.7956 21.5 19V7C21.5 6.20435 21.1839 5.44129 20.6213 4.87868C20.0587 4.31607 19.2957 4 18.5 4V4ZM6.5 6H7.5V7C7.5 7.26522 7.60536 7.51957 7.79289 7.70711C7.98043 7.89464 8.23478 8 8.5 8C8.76522 8 9.01957 7.89464 9.20711 7.70711C9.39464 7.51957 9.5 7.26522 9.5 7V6H15.5V7C15.5 7.26522 15.6054 7.51957 15.7929 7.70711C15.9804 7.89464 16.2348 8 16.5 8C16.7652 8 17.0196 7.89464 17.2071 7.70711C17.3946 7.51957 17.5 7.26522 17.5 7V6H18.5C18.7652 6 19.0196 6.10536 19.2071 6.29289C19.3946 6.48043 19.5 6.73478 19.5 7V11H5.5V7C5.5 6.73478 5.60536 6.48043 5.79289 6.29289C5.98043 6.10536 6.23478 6 6.5 6V6ZM18.5 20H6.5C6.23478 20 5.98043 19.8946 5.79289 19.7071C5.60536 19.5196 5.5 19.2652 5.5 19V13H19.5V19C19.5 19.2652 19.3946 19.5196 19.2071 19.7071C19.0196 19.8946 18.7652 20 18.5 20Z" fill="#231F20" fill-opacity="0.5"/>
<path d="M8.5 17C9.05228 17 9.5 16.5523 9.5 16C9.5 15.4477 9.05228 15 8.5 15C7.94772 15 7.5 15.4477 7.5 16C7.5 16.5523 7.94772 17 8.5 17Z" fill="#231F20" fill-opacity="0.5"/>
<path d="M16.5 15H12.5C12.2348 15 11.9804 15.1054 11.7929 15.2929C11.6054 15.4804 11.5 15.7348 11.5 16C11.5 16.2652 11.6054 16.5196 11.7929 16.7071C11.9804 16.8946 12.2348 17 12.5 17H16.5C16.7652 17 17.0196 16.8946 17.2071 16.7071C17.3946 16.5196 17.5 16.2652 17.5 16C17.5 15.7348 17.3946 15.4804 17.2071 15.2929C17.0196 15.1054 16.7652 15 16.5 15Z" fill="#231F20" fill-opacity="0.5"/>
</svg>
