<svg width="25" height="25" viewBox="0 0 25 25" fill="none" xmlns="http://www.w3.org/2000/svg">
<path d="M18.75 4.16667H17.7083V3.125C17.7083 2.84873 17.5986 2.58378 17.4032 2.38843C17.2079 2.19308 16.9429 2.08333 16.6667 2.08333C16.3904 2.08333 16.1254 2.19308 15.9301 2.38843C15.7347 2.58378 15.625 2.84873 15.625 3.125V4.16667H9.375V3.125C9.375 2.84873 9.26525 2.58378 9.0699 2.38843C8.87455 2.19308 8.6096 2.08333 8.33333 2.08333C8.05707 2.08333 7.79211 2.19308 7.59676 2.38843C7.40141 2.58378 7.29167 2.84873 7.29167 3.125V4.16667H6.25C5.4212 4.16667 4.62634 4.49591 4.04029 5.08196C3.45424 5.66801 3.125 6.46286 3.125 7.29167V19.7917C3.125 20.6205 3.45424 21.4153 4.04029 22.0014C4.62634 22.5874 5.4212 22.9167 6.25 22.9167H18.75C19.5788 22.9167 20.3737 22.5874 20.9597 22.0014C21.5458 21.4153 21.875 20.6205 21.875 19.7917V7.29167C21.875 6.46286 21.5458 5.66801 20.9597 5.08196C20.3737 4.49591 19.5788 4.16667 18.75 4.16667V4.16667ZM6.25 6.25H7.29167V7.29167C7.29167 7.56793 7.40141 7.83288 7.59676 8.02824C7.79211 8.22359 8.05707 8.33333 8.33333 8.33333C8.6096 8.33333 8.87455 8.22359 9.0699 8.02824C9.26525 7.83288 9.375 7.56793 9.375 7.29167V6.25H15.625V7.29167C15.625 7.56793 15.7347 7.83288 15.9301 8.02824C16.1254 8.22359 16.3904 8.33333 16.6667 8.33333C16.9429 8.33333 17.2079 8.22359 17.4032 8.02824C17.5986 7.83288 17.7083 7.56793 17.7083 7.29167V6.25H18.75C19.0263 6.25 19.2912 6.35975 19.4866 6.5551C19.6819 6.75045 19.7917 7.0154 19.7917 7.29167V11.4583H5.20833V7.29167C5.20833 7.0154 5.31808 6.75045 5.51343 6.5551C5.70878 6.35975 5.97373 6.25 6.25 6.25V6.25ZM18.75 20.8333H6.25C5.97373 20.8333 5.70878 20.7236 5.51343 20.5282C5.31808 20.3329 5.20833 20.0679 5.20833 19.7917V13.5417H19.7917V19.7917C19.7917 20.0679 19.6819 20.3329 19.4866 20.5282C19.2912 20.7236 19.0263 20.8333 18.75 20.8333Z" fill="#545454"/>
<path d="M8.33332 17.7083C8.90862 17.7083 9.37499 17.242 9.37499 16.6667C9.37499 16.0914 8.90862 15.625 8.33332 15.625C7.75803 15.625 7.29166 16.0914 7.29166 16.6667C7.29166 17.242 7.75803 17.7083 8.33332 17.7083Z" fill="#545454"/>
<path d="M16.6667 15.625H12.5C12.2237 15.625 11.9588 15.7347 11.7634 15.9301C11.5681 16.1254 11.4583 16.3904 11.4583 16.6667C11.4583 16.9429 11.5681 17.2079 11.7634 17.4032C11.9588 17.5986 12.2237 17.7083 12.5 17.7083H16.6667C16.9429 17.7083 17.2079 17.5986 17.4032 17.4032C17.5986 17.2079 17.7083 16.9429 17.7083 16.6667C17.7083 16.3904 17.5986 16.1254 17.4032 15.9301C17.2079 15.7347 16.9429 15.625 16.6667 15.625Z" fill="#545454"/>
</svg>
