<svg width="23" height="21" viewBox="0 0 23 21" fill="none" xmlns="http://www.w3.org/2000/svg">
<path d="M20.9833 4.78703H15.4833V3.1763C15.4575 2.55884 15.1536 1.97555 14.6381 1.55428C14.1226 1.13302 13.4376 0.908163 12.7333 0.929003H9.43333C8.72906 0.908163 8.0441 1.13302 7.5286 1.55428C7.0131 1.97555 6.70913 2.55884 6.68333 3.1763V4.78703H1.18333C0.89159 4.78703 0.611801 4.88865 0.405511 5.06953C0.199221 5.25041 0.0833282 5.49573 0.0833282 5.75153C0.0833282 6.00734 0.199221 6.25266 0.405511 6.43354C0.611801 6.61442 0.89159 6.71604 1.18333 6.71604H2.28333V17.3256C2.28333 18.093 2.63101 18.829 3.24988 19.3716C3.86875 19.9143 4.70811 20.2191 5.58333 20.2191H16.5833C17.4585 20.2191 18.2979 19.9143 18.9168 19.3716C19.5357 18.829 19.8833 18.093 19.8833 17.3256V6.71604H20.9833C21.2751 6.71604 21.5549 6.61442 21.7611 6.43354C21.9674 6.25266 22.0833 6.00734 22.0833 5.75153C22.0833 5.49573 21.9674 5.25041 21.7611 5.06953C21.5549 4.88865 21.2751 4.78703 20.9833 4.78703ZM8.88333 3.1763C8.88333 3.02198 9.11433 2.85802 9.43333 2.85802H12.7333C13.0523 2.85802 13.2833 3.02198 13.2833 3.1763V4.78703H8.88333V3.1763ZM17.6833 17.3256C17.6833 17.5814 17.5674 17.8267 17.3611 18.0076C17.1549 18.1885 16.8751 18.2901 16.5833 18.2901H5.58333C5.29159 18.2901 5.0118 18.1885 4.80551 18.0076C4.59922 17.8267 4.48333 17.5814 4.48333 17.3256V6.71604H17.6833V17.3256Z" fill="black" fill-opacity="0.6"/>
<path d="M7.37495 15.3966C7.65122 15.3966 7.91617 15.295 8.11152 15.1141C8.30687 14.9332 8.41662 14.6879 8.41662 14.4321V10.5741C8.41662 10.3183 8.30687 10.0729 8.11152 9.89206C7.91617 9.71118 7.65122 9.60956 7.37495 9.60956C7.09868 9.60956 6.83373 9.71118 6.63838 9.89206C6.44303 10.0729 6.33328 10.3183 6.33328 10.5741V14.4321C6.33328 14.6879 6.44303 14.9332 6.63838 15.1141C6.83373 15.295 7.09868 15.3966 7.37495 15.3966Z" fill="black" fill-opacity="0.6"/>
<path d="M13.6249 15.3966C13.9012 15.3966 14.1662 15.295 14.3615 15.1141C14.5569 14.9332 14.6666 14.6879 14.6666 14.4321V10.5741C14.6666 10.3183 14.5569 10.0729 14.3615 9.89206C14.1662 9.71118 13.9012 9.60956 13.6249 9.60956C13.3487 9.60956 13.0837 9.71118 12.8884 9.89206C12.693 10.0729 12.5833 10.3183 12.5833 10.5741V14.4321C12.5833 14.6879 12.693 14.9332 12.8884 15.1141C13.0837 15.295 13.3487 15.3966 13.6249 15.3966Z" fill="black" fill-opacity="0.6"/>
</svg>
