<svg width="30" height="30" viewBox="0 0 30 30" fill="none" xmlns="http://www.w3.org/2000/svg">
<g clip-path="url(#clip0_230_1381)">
<path fill-rule="evenodd" clip-rule="evenodd" d="M15 2.5C8.09625 2.5 2.5 8.09625 2.5 15C2.5 21.9037 8.09625 27.5 15 27.5C21.9037 27.5 27.5 21.9037 27.5 15C27.5 8.09625 21.9037 2.5 15 2.5ZM0 15C0 6.71562 6.71562 0 15 0C23.2844 0 30 6.71562 30 15C30 23.2844 23.2844 30 15 30C6.71562 30 0 23.2844 0 15Z" fill="white"/>
<path fill-rule="evenodd" clip-rule="evenodd" d="M11.9894 28.42C11.8688 28.2638 11.8688 26.8731 11.9894 24.2488C10.6944 24.2938 9.87688 24.2038 9.53501 23.9794C9.02313 23.6425 8.51001 22.6044 8.05563 21.8725C7.60063 21.1413 6.59126 21.025 6.18376 20.8613C5.77626 20.6981 5.67376 20.0313 7.30688 20.535C8.94001 21.0394 9.01938 22.4131 9.53501 22.7338C10.0506 23.055 11.2825 22.915 11.8406 22.6575C12.3988 22.4 12.3575 21.4425 12.4575 21.0631C12.5831 20.7088 12.1394 20.63 12.13 20.6275C11.5844 20.6275 8.72126 20.0044 7.93438 17.2319C7.14813 14.4588 8.16126 12.6463 8.70189 11.8669C9.06189 11.3481 9.03001 10.2406 8.60626 8.54625C10.1456 8.34938 11.3344 8.83375 12.1706 10C12.1719 10.0063 13.2681 9.34813 15 9.34813C16.7325 9.34813 17.3469 9.88438 17.8213 10C18.2963 10.1156 18.675 7.95875 21.6044 8.54625C20.9925 9.74813 20.4806 11.25 20.8713 11.8675C21.2625 12.4844 22.7963 14.4469 21.8544 17.2319C21.2256 19.0881 19.9906 20.22 18.1488 20.6275C17.9381 20.695 17.8325 20.8038 17.8325 20.9538C17.8325 21.1788 18.1175 21.2031 18.5288 22.2575C18.8038 22.96 18.8231 24.9675 18.5888 28.2794C17.9944 28.4306 17.5319 28.5325 17.2013 28.5844C16.6156 28.6763 15.9794 28.7281 15.3544 28.7475C14.7294 28.7675 14.5125 28.7656 13.6481 28.685C13.0899 28.6343 12.5357 28.5458 11.9894 28.42V28.42Z" fill="white"/>
</g>
<defs>
<clipPath id="clip0_230_1381">
<rect width="30" height="30" fill="white"/>
</clipPath>
</defs>
</svg>
