<svg width="26" height="26" viewBox="0 0 26 26" fill="none" xmlns="http://www.w3.org/2000/svg">
<path d="M26 13C26 20.1797 20.1797 26 13 26C5.8203 26 0 20.1797 0 13C0 5.8203 5.8203 0 13 0C20.1797 0 26 5.8203 26 13ZM1.45729 13C1.45729 19.3749 6.62514 24.5427 13 24.5427C19.3749 24.5427 24.5427 19.3749 24.5427 13C24.5427 6.62514 19.3749 1.45729 13 1.45729C6.62514 1.45729 1.45729 6.62514 1.45729 13Z" fill="black" fill-opacity="0.5"/>
<path d="M21 13L9 19.9282L9 6.0718L21 13Z" fill="black" fill-opacity="0.6"/>
</svg>
